STARTFONT 2.1
FONT -FontForge-Satisfy-Book-R-Normal--14-140-72-72-P-61-ISO10646-1
SIZE 14 72 72
FONTBOUNDINGBOX 16 21 -3 -7
COMMENT "Generated by fontforge, http://fontforge.sourceforge.net"
COMMENT "Copyright (c) 2011 by Font Diner, Inc. All rights reserved."
STARTPROPERTIES 39
FOUNDRY "FontForge"
FAMILY_NAME "Satisfy"
WEIGHT_NAME "Book"
SLANT "R"
SETWIDTH_NAME "Normal"
ADD_STYLE_NAME ""
PIXEL_SIZE 14
POINT_SIZE 140
RESOLUTION_X 72
RESOLUTION_Y 72
SPACING "P"
AVERAGE_WIDTH 61
CHARSET_REGISTRY "ISO10646"
CHARSET_ENCODING "1"
FONTNAME_REGISTRY ""
CHARSET_COLLECTIONS "ISO10646-1"
FONT_NAME "Satisfy-Regular"
FACE_NAME "Satisfy Regular"
COPYRIGHT "Copyright (c) 2011 by Font Diner, Inc. All rights reserved."
FONT_VERSION "1.001"
FONT_ASCENT 11
FONT_DESCENT 3
UNDERLINE_POSITION -1
UNDERLINE_THICKNESS 1
X_HEIGHT 5
CAP_HEIGHT 9
RAW_ASCENT 799
RAW_DESCENT 200
NORM_SPACE 4
RELATIVE_WEIGHT 40
RELATIVE_SETWIDTH 50
SUPERSCRIPT_X 0
SUPERSCRIPT_Y 6
SUPERSCRIPT_SIZE 9
SUBSCRIPT_X 0
SUBSCRIPT_Y 1
SUBSCRIPT_SIZE 9
AVG_LOWERCASE_WIDTH 58
AVG_UPPERCASE_WIDTH 79
ENDPROPERTIES
CHARS 227
STARTCHAR space
ENCODING 32
SWIDTH 280 0
DWIDTH 4 0
BBX 1 1 0 0
BITMAP
00
ENDCHAR
STARTCHAR exclam
ENCODING 33
SWIDTH 249 0
DWIDTH 3 0
BBX 4 10 0 0
BITMAP
30
20
20
60
60
40
40
40
80
C0
ENDCHAR
STARTCHAR quotedbl
ENCODING 34
SWIDTH 249 0
DWIDTH 3 0
BBX 4 4 1 6
BITMAP
F0
A0
A0
E0
ENDCHAR
STARTCHAR numbersign
ENCODING 35
SWIDTH 417 0
DWIDTH 6 0
BBX 6 7 0 2
BITMAP
14
28
FC
28
FC
D0
F0
ENDCHAR
STARTCHAR dollar
ENCODING 36
SWIDTH 292 0
DWIDTH 4 0
BBX 6 10 -1 0
BITMAP
08
38
24
28
20
10
50
90
70
60
ENDCHAR
STARTCHAR percent
ENCODING 37
SWIDTH 574 0
DWIDTH 8 0
BBX 8 10 0 0
BITMAP
71
52
94
58
68
16
2A
2A
4A
CE
ENDCHAR
STARTCHAR ampersand
ENCODING 38
SWIDTH 460 0
DWIDTH 6 0
BBX 7 11 -1 -1
BITMAP
0E
12
14
18
10
30
58
DA
CC
78
0C
ENDCHAR
STARTCHAR quotesingle
ENCODING 39
SWIDTH 113 0
DWIDTH 2 0
BBX 2 4 1 6
BITMAP
C0
80
80
80
ENDCHAR
STARTCHAR parenleft
ENCODING 40
SWIDTH 234 0
DWIDTH 3 0
BBX 5 14 0 -2
BITMAP
08
10
20
20
40
40
40
40
80
80
80
80
40
40
ENDCHAR
STARTCHAR parenright
ENCODING 41
SWIDTH 204 0
DWIDTH 3 0
BBX 5 14 -2 -2
BITMAP
10
10
08
08
08
08
10
10
10
10
20
20
40
80
ENDCHAR
STARTCHAR asterisk
ENCODING 42
SWIDTH 327 0
DWIDTH 5 0
BBX 4 5 1 5
BITMAP
20
B0
40
B0
20
ENDCHAR
STARTCHAR plus
ENCODING 43
SWIDTH 350 0
DWIDTH 5 0
BBX 5 4 0 3
BITMAP
20
78
A0
60
ENDCHAR
STARTCHAR comma
ENCODING 44
SWIDTH 200 0
DWIDTH 3 0
BBX 1 3 0 -2
BITMAP
80
80
80
ENDCHAR
STARTCHAR hyphen
ENCODING 45
SWIDTH 353 0
DWIDTH 5 0
BBX 5 1 0 4
BITMAP
F8
ENDCHAR
STARTCHAR period
ENCODING 46
SWIDTH 213 0
DWIDTH 3 0
BBX 1 1 0 0
BITMAP
80
ENDCHAR
STARTCHAR slash
ENCODING 47
SWIDTH 262 0
DWIDTH 4 0
BBX 6 10 -1 0
BITMAP
04
08
08
10
10
20
20
40
C0
80
ENDCHAR
STARTCHAR zero
ENCODING 48
SWIDTH 489 0
DWIDTH 7 0
BBX 6 10 0 0
BITMAP
1C
24
64
44
44
44
C4
C8
48
70
ENDCHAR
STARTCHAR one
ENCODING 49
SWIDTH 272 0
DWIDTH 4 0
BBX 4 10 0 0
BITMAP
30
60
20
20
20
40
40
40
C0
C0
ENDCHAR
STARTCHAR two
ENCODING 50
SWIDTH 448 0
DWIDTH 6 0
BBX 6 10 0 0
BITMAP
3C
64
64
0C
08
10
20
40
80
F8
ENDCHAR
STARTCHAR three
ENCODING 51
SWIDTH 462 0
DWIDTH 6 0
BBX 6 10 0 0
BITMAP
3C
44
64
0C
18
38
08
08
88
F0
ENDCHAR
STARTCHAR four
ENCODING 52
SWIDTH 452 0
DWIDTH 6 0
BBX 6 10 0 0
BITMAP
0C
14
38
68
48
FC
18
10
10
10
ENDCHAR
STARTCHAR five
ENCODING 53
SWIDTH 444 0
DWIDTH 6 0
BBX 7 10 0 0
BITMAP
3E
24
40
40
78
48
08
48
90
F0
ENDCHAR
STARTCHAR six
ENCODING 54
SWIDTH 477 0
DWIDTH 7 0
BBX 6 10 0 0
BITMAP
1C
24
28
58
64
64
C4
48
48
70
ENDCHAR
STARTCHAR seven
ENCODING 55
SWIDTH 406 0
DWIDTH 6 0
BBX 5 10 1 0
BITMAP
F8
88
10
10
20
60
40
C0
80
80
ENDCHAR
STARTCHAR eight
ENCODING 56
SWIDTH 444 0
DWIDTH 6 0
BBX 6 10 0 0
BITMAP
1C
24
24
28
30
50
D8
88
88
F0
ENDCHAR
STARTCHAR nine
ENCODING 57
SWIDTH 462 0
DWIDTH 6 0
BBX 6 10 0 0
BITMAP
3C
24
44
44
4C
4C
78
08
90
F0
ENDCHAR
STARTCHAR colon
ENCODING 58
SWIDTH 226 0
DWIDTH 3 0
BBX 2 4 0 0
BITMAP
C0
00
00
80
ENDCHAR
STARTCHAR semicolon
ENCODING 59
SWIDTH 212 0
DWIDTH 3 0
BBX 2 6 0 -2
BITMAP
C0
00
00
80
80
80
ENDCHAR
STARTCHAR less
ENCODING 60
SWIDTH 271 0
DWIDTH 4 0
BBX 4 5 0 2
BITMAP
30
40
80
C0
60
ENDCHAR
STARTCHAR equal
ENCODING 61
SWIDTH 374 0
DWIDTH 5 0
BBX 5 3 0 3
BITMAP
F8
38
C0
ENDCHAR
STARTCHAR greater
ENCODING 62
SWIDTH 250 0
DWIDTH 4 0
BBX 4 5 -1 2
BITMAP
20
10
10
30
C0
ENDCHAR
STARTCHAR question
ENCODING 63
SWIDTH 413 0
DWIDTH 6 0
BBX 6 10 0 0
BITMAP
7C
44
44
04
18
60
40
40
80
C0
ENDCHAR
STARTCHAR at
ENCODING 64
SWIDTH 648 0
DWIDTH 9 0
BBX 9 9 0 0
BITMAP
1E00
6100
4E80
9680
A480
A480
A900
9B00
7400
ENDCHAR
STARTCHAR A
ENCODING 65
SWIDTH 552 0
DWIDTH 8 0
BBX 9 13 -2 -3
BITMAP
0380
0480
0480
0880
0900
1900
1100
7F80
3100
2300
2300
6300
8300
ENDCHAR
STARTCHAR B
ENCODING 66
SWIDTH 607 0
DWIDTH 9 0
BBX 8 13 0 -3
BITMAP
3F
71
31
23
22
2C
5C
42
42
C2
C6
8C
70
ENDCHAR
STARTCHAR C
ENCODING 67
SWIDTH 548 0
DWIDTH 8 0
BBX 8 13 0 -3
BITMAP
1E
33
23
67
42
C0
C0
C0
80
82
C4
78
20
ENDCHAR
STARTCHAR D
ENCODING 68
SWIDTH 632 0
DWIDTH 9 0
BBX 8 13 0 -3
BITMAP
3E
43
31
21
21
21
21
63
42
46
CC
D8
60
ENDCHAR
STARTCHAR E
ENCODING 69
SWIDTH 523 0
DWIDTH 7 0
BBX 8 13 0 -3
BITMAP
1E
23
62
66
60
20
38
C0
80
84
84
F8
20
ENDCHAR
STARTCHAR F
ENCODING 70
SWIDTH 585 0
DWIDTH 8 0
BBX 7 13 1 -3
BITMAP
7E
82
E2
04
04
7E
88
10
10
30
20
20
20
ENDCHAR
STARTCHAR G
ENCODING 71
SWIDTH 612 0
DWIDTH 9 0
BBX 8 13 0 -3
BITMAP
0E
11
33
27
62
40
C1
CF
C2
C6
C4
48
30
ENDCHAR
STARTCHAR H
ENCODING 72
SWIDTH 649 0
DWIDTH 9 0
BBX 9 13 0 -3
BITMAP
1080
3180
2100
2100
2100
6200
7F80
4A00
4600
4400
C400
8400
8000
ENDCHAR
STARTCHAR I
ENCODING 73
SWIDTH 537 0
DWIDTH 8 0
BBX 8 13 -1 -3
BITMAP
07
0D
09
0B
0A
0A
0A
1F
64
84
88
48
30
ENDCHAR
STARTCHAR J
ENCODING 74
SWIDTH 500 0
DWIDTH 7 0
BBX 9 13 -1 -3
BITMAP
0F80
0200
0200
0200
0600
0600
2400
6400
CC00
8800
8800
9000
6000
ENDCHAR
STARTCHAR K
ENCODING 75
SWIDTH 497 0
DWIDTH 7 0
BBX 9 14 -1 -4
BITMAP
1980
1100
1100
3200
2600
2C00
3000
6C00
4400
4400
4C00
C800
8800
0700
ENDCHAR
STARTCHAR L
ENCODING 76
SWIDTH 492 0
DWIDTH 7 0
BBX 8 13 -1 -3
BITMAP
03
05
05
0E
7C
08
08
08
10
10
E0
DA
06
ENDCHAR
STARTCHAR M
ENCODING 77
SWIDTH 733 0
DWIDTH 10 0
BBX 11 13 -1 -3
BITMAP
0C60
0C60
0CA0
1CA0
1540
1540
5540
B640
A6C0
A680
A480
E0C0
4060
ENDCHAR
STARTCHAR N
ENCODING 78
SWIDTH 541 0
DWIDTH 8 0
BBX 10 12 -1 -2
BITMAP
11C0
1140
3140
2B80
2A00
2A00
6A00
4A00
4A00
4C00
4C00
CC00
ENDCHAR
STARTCHAR O
ENCODING 79
SWIDTH 567 0
DWIDTH 8 0
BBX 7 13 0 -3
BITMAP
1E
32
22
42
42
42
C2
C2
84
84
CC
58
20
ENDCHAR
STARTCHAR P
ENCODING 80
SWIDTH 552 0
DWIDTH 8 0
BBX 9 12 -1 -2
BITMAP
1F00
2980
1080
1180
1100
3300
2600
3800
2000
6000
6000
C000
ENDCHAR
STARTCHAR Q
ENCODING 81
SWIDTH 583 0
DWIDTH 8 0
BBX 8 13 0 -3
BITMAP
1E
32
63
43
43
C2
C2
C2
64
04
78
54
63
ENDCHAR
STARTCHAR R
ENCODING 82
SWIDTH 560 0
DWIDTH 8 0
BBX 9 13 -1 -3
BITMAP
1F00
2880
1080
1080
1180
1300
3E00
3C00
2400
2400
6400
C400
0700
ENDCHAR
STARTCHAR S
ENCODING 83
SWIDTH 474 0
DWIDTH 7 0
BBX 8 13 -1 -3
BITMAP
1F
31
21
22
30
18
0C
04
04
44
C4
48
30
ENDCHAR
STARTCHAR T
ENCODING 84
SWIDTH 423 0
DWIDTH 6 0
BBX 8 13 0 -3
BITMAP
FF
18
10
10
10
30
20
20
20
60
60
40
40
ENDCHAR
STARTCHAR U
ENCODING 85
SWIDTH 574 0
DWIDTH 8 0
BBX 9 13 0 -3
BITMAP
3180
2100
2300
6200
4200
4200
4600
C400
C400
8C00
8C00
D400
2000
ENDCHAR
STARTCHAR V
ENCODING 86
SWIDTH 503 0
DWIDTH 7 0
BBX 7 13 1 -3
BITMAP
46
C4
84
8C
88
88
98
90
90
A0
A0
C0
40
ENDCHAR
STARTCHAR W
ENCODING 87
SWIDTH 817 0
DWIDTH 11 0
BBX 11 13 0 -3
BITMAP
3220
2220
2620
4620
4420
4460
4440
8C40
8C40
8C80
5480
6700
4200
ENDCHAR
STARTCHAR X
ENCODING 88
SWIDTH 579 0
DWIDTH 8 0
BBX 11 13 -1 -3
BITMAP
38E0
4880
2900
3B00
0A00
0C00
0C00
0C00
1400
3400
2440
C680
0300
ENDCHAR
STARTCHAR Y
ENCODING 89
SWIDTH 532 0
DWIDTH 7 0
BBX 8 13 0 -3
BITMAP
33
23
62
42
46
44
C4
CC
74
08
48
F0
40
ENDCHAR
STARTCHAR Z
ENCODING 90
SWIDTH 455 0
DWIDTH 6 0
BBX 8 12 -1 -2
BITMAP
3F
21
02
06
04
08
10
30
60
40
80
FC
ENDCHAR
STARTCHAR bracketleft
ENCODING 91
SWIDTH 202 0
DWIDTH 3 0
BBX 5 14 -1 -2
BITMAP
08
10
10
20
20
20
20
40
40
40
40
40
C0
40
ENDCHAR
STARTCHAR backslash
ENCODING 92
SWIDTH 273 0
DWIDTH 4 0
BBX 2 10 1 0
BITMAP
80
80
80
80
80
80
80
40
40
40
ENDCHAR
STARTCHAR bracketright
ENCODING 93
SWIDTH 216 0
DWIDTH 3 0
BBX 4 14 -1 -2
BITMAP
10
30
10
10
10
10
20
20
20
20
40
40
C0
80
ENDCHAR
STARTCHAR asciicircum
ENCODING 94
SWIDTH 287 0
DWIDTH 4 0
BBX 4 5 0 5
BITMAP
30
30
50
90
90
ENDCHAR
STARTCHAR underscore
ENCODING 95
SWIDTH 439 0
DWIDTH 6 0
BBX 8 1 -2 0
BITMAP
FF
ENDCHAR
STARTCHAR grave
ENCODING 96
SWIDTH 567 0
DWIDTH 8 0
BBX 2 2 4 8
BITMAP
80
C0
ENDCHAR
STARTCHAR a
ENCODING 97
SWIDTH 435 0
DWIDTH 6 0
BBX 7 6 0 0
BITMAP
30
50
D0
92
94
F8
ENDCHAR
STARTCHAR b
ENCODING 98
SWIDTH 415 0
DWIDTH 6 0
BBX 7 10 0 0
BITMAP
20
20
60
60
40
D2
DC
90
90
E0
ENDCHAR
STARTCHAR c
ENCODING 99
SWIDTH 363 0
DWIDTH 5 0
BBX 6 6 0 0
BITMAP
30
50
90
84
88
F0
ENDCHAR
STARTCHAR d
ENCODING 100
SWIDTH 483 0
DWIDTH 7 0
BBX 8 10 0 0
BITMAP
06
06
04
0C
2C
58
98
91
92
FC
ENDCHAR
STARTCHAR e
ENCODING 101
SWIDTH 372 0
DWIDTH 5 0
BBX 6 6 0 0
BITMAP
30
50
A0
C4
88
F0
ENDCHAR
STARTCHAR f
ENCODING 102
SWIDTH 325 0
DWIDTH 5 0
BBX 7 17 -1 -7
BITMAP
10
10
10
10
10
20
3E
60
60
70
50
50
90
90
B0
E0
80
ENDCHAR
STARTCHAR g
ENCODING 103
SWIDTH 459 0
DWIDTH 6 0
BBX 7 13 0 -7
BITMAP
20
58
98
8A
94
F8
30
50
B0
A0
A0
A0
40
ENDCHAR
STARTCHAR h
ENCODING 104
SWIDTH 465 0
DWIDTH 7 0
BBX 7 10 0 0
BITMAP
20
20
20
60
40
78
48
9A
94
98
ENDCHAR
STARTCHAR i
ENCODING 105
SWIDTH 274 0
DWIDTH 4 0
BBX 5 9 0 0
BITMAP
20
20
00
00
40
40
88
90
E0
ENDCHAR
STARTCHAR j
ENCODING 106
SWIDTH 267 0
DWIDTH 4 0
BBX 8 15 -3 -6
BITMAP
04
04
00
00
08
08
19
12
1C
10
30
60
A0
A0
C0
ENDCHAR
STARTCHAR k
ENCODING 107
SWIDTH 440 0
DWIDTH 6 0
BBX 7 10 0 0
BITMAP
20
20
20
40
50
78
50
B2
94
98
ENDCHAR
STARTCHAR l
ENCODING 108
SWIDTH 218 0
DWIDTH 3 0
BBX 3 10 0 0
BITMAP
20
20
20
60
40
40
40
80
80
80
ENDCHAR
STARTCHAR m
ENCODING 109
SWIDTH 717 0
DWIDTH 10 0
BBX 11 5 0 0
BITMAP
5B00
6D00
C920
9B40
9380
ENDCHAR
STARTCHAR n
ENCODING 110
SWIDTH 461 0
DWIDTH 6 0
BBX 8 5 0 0
BITMAP
78
49
9A
92
9C
ENDCHAR
STARTCHAR o
ENCODING 111
SWIDTH 393 0
DWIDTH 6 0
BBX 7 6 0 0
BITMAP
20
52
D4
F8
90
E0
ENDCHAR
STARTCHAR p
ENCODING 112
SWIDTH 451 0
DWIDTH 6 0
BBX 8 11 -1 -6
BITMAP
3C
24
45
6A
7C
40
C0
80
80
80
80
ENDCHAR
STARTCHAR q
ENCODING 113
SWIDTH 462 0
DWIDTH 6 0
BBX 7 11 0 -6
BITMAP
78
D8
88
92
F4
18
10
20
20
20
20
ENDCHAR
STARTCHAR r
ENCODING 114
SWIDTH 406 0
DWIDTH 6 0
BBX 8 6 -1 0
BITMAP
30
38
28
49
92
9C
ENDCHAR
STARTCHAR s
ENCODING 115
SWIDTH 351 0
DWIDTH 5 0
BBX 4 6 0 0
BITMAP
20
60
60
B0
50
E0
ENDCHAR
STARTCHAR t
ENCODING 116
SWIDTH 301 0
DWIDTH 4 0
BBX 7 10 -1 0
BITMAP
10
10
FE
30
30
20
22
44
48
30
ENDCHAR
STARTCHAR u
ENCODING 117
SWIDTH 468 0
DWIDTH 7 0
BBX 8 5 0 0
BITMAP
48
D9
92
92
FC
ENDCHAR
STARTCHAR v
ENCODING 118
SWIDTH 427 0
DWIDTH 6 0
BBX 7 6 0 0
BITMAP
08
C8
9A
9C
A0
60
ENDCHAR
STARTCHAR w
ENCODING 119
SWIDTH 646 0
DWIDTH 9 0
BBX 10 6 0 0
BITMAP
0800
5B00
D340
9380
9200
EC00
ENDCHAR
STARTCHAR x
ENCODING 120
SWIDTH 399 0
DWIDTH 6 0
BBX 7 6 -1 0
BITMAP
64
2C
38
30
72
DC
ENDCHAR
STARTCHAR y
ENCODING 121
SWIDTH 406 0
DWIDTH 6 0
BBX 5 11 0 -6
BITMAP
C8
88
90
90
F0
10
20
20
20
20
60
ENDCHAR
STARTCHAR z
ENCODING 122
SWIDTH 448 0
DWIDTH 6 0
BBX 7 12 0 -6
BITMAP
18
68
08
12
3A
2C
38
50
90
B0
A0
C0
ENDCHAR
STARTCHAR braceleft
ENCODING 123
SWIDTH 243 0
DWIDTH 3 0
BBX 5 14 0 -2
BITMAP
08
30
20
20
20
20
C0
40
40
40
80
80
C0
40
ENDCHAR
STARTCHAR bar
ENCODING 124
SWIDTH 253 0
DWIDTH 4 0
BBX 4 10 0 0
BITMAP
30
20
20
20
40
40
40
40
80
80
ENDCHAR
STARTCHAR braceright
ENCODING 125
SWIDTH 243 0
DWIDTH 3 0
BBX 5 14 -1 -2
BITMAP
20
30
18
10
10
20
20
30
20
40
20
40
C0
80
ENDCHAR
STARTCHAR asciitilde
ENCODING 126
SWIDTH 329 0
DWIDTH 5 0
BBX 5 2 0 4
BITMAP
C8
B0
ENDCHAR
STARTCHAR uni00A0
ENCODING 160
SWIDTH 280 0
DWIDTH 4 0
BBX 1 1 0 0
BITMAP
00
ENDCHAR
STARTCHAR exclamdown
ENCODING 161
SWIDTH 249 0
DWIDTH 3 0
BBX 4 10 0 0
BITMAP
30
00
20
20
40
40
40
C0
C0
80
ENDCHAR
STARTCHAR cent
ENCODING 162
SWIDTH 322 0
DWIDTH 5 0
BBX 5 10 0 0
BITMAP
10
30
48
58
80
80
80
90
60
40
ENDCHAR
STARTCHAR sterling
ENCODING 163
SWIDTH 318 0
DWIDTH 4 0
BBX 6 9 -1 1
BITMAP
08
14
24
28
20
70
40
40
F8
ENDCHAR
STARTCHAR currency
ENCODING 164
SWIDTH 347 0
DWIDTH 5 0
BBX 5 4 0 3
BITMAP
78
50
50
B0
ENDCHAR
STARTCHAR yen
ENCODING 165
SWIDTH 326 0
DWIDTH 5 0
BBX 6 8 0 1
BITMAP
4C
48
50
20
30
C0
E0
40
ENDCHAR
STARTCHAR brokenbar
ENCODING 166
SWIDTH 253 0
DWIDTH 4 0
BBX 4 10 0 0
BITMAP
30
20
20
60
00
40
40
40
80
80
ENDCHAR
STARTCHAR section
ENCODING 167
SWIDTH 297 0
DWIDTH 4 0
BBX 5 10 0 0
BITMAP
38
58
40
20
D0
90
60
20
A0
E0
ENDCHAR
STARTCHAR dieresis
ENCODING 168
SWIDTH 567 0
DWIDTH 8 0
BBX 4 1 3 8
BITMAP
F0
ENDCHAR
STARTCHAR copyright
ENCODING 169
SWIDTH 456 0
DWIDTH 6 0
BBX 7 7 0 3
BITMAP
3C
5A
AA
A2
AA
54
38
ENDCHAR
STARTCHAR ordfeminine
ENCODING 170
SWIDTH 373 0
DWIDTH 5 0
BBX 7 7 -1 0
BITMAP
10
28
48
4A
74
48
F8
ENDCHAR
STARTCHAR guillemotleft
ENCODING 171
SWIDTH 346 0
DWIDTH 5 0
BBX 6 5 -1 0
BITMAP
3C
50
F0
50
28
ENDCHAR
STARTCHAR logicalnot
ENCODING 172
SWIDTH 512 0
DWIDTH 7 0
BBX 7 4 0 2
BITMAP
7C
82
02
04
ENDCHAR
STARTCHAR sfthyphen
ENCODING 173
SWIDTH 353 0
DWIDTH 5 0
BBX 5 1 0 4
BITMAP
F8
ENDCHAR
STARTCHAR registered
ENCODING 174
SWIDTH 456 0
DWIDTH 6 0
BBX 7 7 0 3
BITMAP
3C
7A
9A
B2
AA
4C
38
ENDCHAR
STARTCHAR macron
ENCODING 175
SWIDTH 567 0
DWIDTH 8 0
BBX 3 1 3 8
BITMAP
E0
ENDCHAR
STARTCHAR degree
ENCODING 176
SWIDTH 144 0
DWIDTH 2 0
BBX 2 1 1 8
BITMAP
C0
ENDCHAR
STARTCHAR twosuperior
ENCODING 178
SWIDTH 268 0
DWIDTH 4 0
BBX 4 6 0 4
BITMAP
70
50
10
20
40
F0
ENDCHAR
STARTCHAR threesuperior
ENCODING 179
SWIDTH 262 0
DWIDTH 4 0
BBX 4 6 0 4
BITMAP
70
50
20
50
10
E0
ENDCHAR
STARTCHAR acute
ENCODING 180
SWIDTH 567 0
DWIDTH 8 0
BBX 2 2 4 8
BITMAP
40
C0
ENDCHAR
STARTCHAR mu
ENCODING 181
SWIDTH 453 0
DWIDTH 6 0
BBX 8 8 -2 -3
BITMAP
34
24
25
65
7E
40
40
80
ENDCHAR
STARTCHAR paragraph
ENCODING 182
SWIDTH 411 0
DWIDTH 6 0
BBX 7 10 0 0
BITMAP
3E
74
F4
F4
78
18
28
28
28
70
ENDCHAR
STARTCHAR periodcentered
ENCODING 183
SWIDTH 168 0
DWIDTH 2 0
BBX 2 1 0 4
BITMAP
C0
ENDCHAR
STARTCHAR cedilla
ENCODING 184
SWIDTH 567 0
DWIDTH 8 0
BBX 2 3 4 -2
BITMAP
80
40
80
ENDCHAR
STARTCHAR onesuperior
ENCODING 185
SWIDTH 150 0
DWIDTH 2 0
BBX 3 6 0 4
BITMAP
60
40
40
40
40
C0
ENDCHAR
STARTCHAR ordmasculine
ENCODING 186
SWIDTH 319 0
DWIDTH 4 0
BBX 6 7 -1 0
BITMAP
10
28
6C
78
50
20
F0
ENDCHAR
STARTCHAR guillemotright
ENCODING 187
SWIDTH 346 0
DWIDTH 5 0
BBX 5 5 -1 0
BITMAP
50
28
28
50
A0
ENDCHAR
STARTCHAR onequarter
ENCODING 188
SWIDTH 579 0
DWIDTH 8 0
BBX 8 10 0 0
BITMAP
63
44
44
48
53
D6
2A
4E
42
86
ENDCHAR
STARTCHAR onehalf
ENCODING 189
SWIDTH 603 0
DWIDTH 8 0
BBX 8 11 0 -1
BITMAP
63
42
44
48
57
55
21
42
44
8E
02
ENDCHAR
STARTCHAR threequarters
ENCODING 190
SWIDTH 669 0
DWIDTH 9 0
BBX 9 10 0 0
BITMAP
7180
5100
2200
5400
1580
EA80
1500
1780
2100
4100
ENDCHAR
STARTCHAR questiondown
ENCODING 191
SWIDTH 413 0
DWIDTH 6 0
BBX 7 10 -1 0
BITMAP
06
00
04
04
1C
20
40
CC
84
78
ENDCHAR
STARTCHAR Agrave
ENCODING 192
SWIDTH 552 0
DWIDTH 8 0
BBX 9 17 -2 -3
BITMAP
0100
0180
0000
0000
0380
0480
0480
0880
0900
1900
1100
7F80
3100
2300
2300
6300
8300
ENDCHAR
STARTCHAR Aacute
ENCODING 193
SWIDTH 552 0
DWIDTH 8 0
BBX 9 16 -2 -3
BITMAP
0080
0180
0000
0380
0480
0480
0880
0900
1900
1100
7F80
3100
2300
2300
6300
8300
ENDCHAR
STARTCHAR Acircumflex
ENCODING 194
SWIDTH 552 0
DWIDTH 8 0
BBX 10 16 -2 -3
BITMAP
0080
03C0
0000
0380
0480
0480
0880
0900
1900
1100
7F80
3100
2300
2300
6300
8300
ENDCHAR
STARTCHAR Atilde
ENCODING 195
SWIDTH 552 0
DWIDTH 8 0
BBX 10 15 -2 -3
BITMAP
03C0
0000
0380
0480
0480
0880
0900
1900
1100
7F80
3100
2300
2300
6300
8300
ENDCHAR
STARTCHAR Adieresis
ENCODING 196
SWIDTH 552 0
DWIDTH 8 0
BBX 10 15 -2 -3
BITMAP
0340
0000
0380
0480
0480
0880
0900
1900
1100
7F80
3100
2300
2300
6300
8300
ENDCHAR
STARTCHAR Aring
ENCODING 197
SWIDTH 552 0
DWIDTH 8 0
BBX 9 15 -2 -3
BITMAP
0180
0180
0380
0480
0480
0880
0900
1900
1100
7F80
3100
2300
2300
6300
8300
ENDCHAR
STARTCHAR AE
ENCODING 198
SWIDTH 869 0
DWIDTH 12 0
BBX 14 13 -2 -3
BITMAP
03BC
04C4
04C4
088C
09C0
1940
11F0
7F80
3100
2308
2308
63F0
8340
ENDCHAR
STARTCHAR Ccedilla
ENCODING 199
SWIDTH 548 0
DWIDTH 8 0
BBX 8 15 0 -5
BITMAP
1E
33
23
67
42
C0
C0
C0
80
82
C4
78
20
30
30
ENDCHAR
STARTCHAR Egrave
ENCODING 200
SWIDTH 523 0
DWIDTH 7 0
BBX 8 16 0 -3
BITMAP
08
06
00
1E
23
62
66
60
20
38
C0
80
84
84
F8
20
ENDCHAR
STARTCHAR Eacute
ENCODING 201
SWIDTH 523 0
DWIDTH 7 0
BBX 8 16 0 -3
BITMAP
02
06
00
1E
23
62
66
60
20
38
C0
80
84
84
F8
20
ENDCHAR
STARTCHAR Ecircumflex
ENCODING 202
SWIDTH 523 0
DWIDTH 7 0
BBX 8 16 0 -3
BITMAP
02
0F
00
1E
23
62
66
60
20
38
C0
80
84
84
F8
20
ENDCHAR
STARTCHAR Edieresis
ENCODING 203
SWIDTH 523 0
DWIDTH 7 0
BBX 8 15 0 -3
BITMAP
0F
00
1E
23
62
66
60
20
38
C0
80
84
84
F8
20
ENDCHAR
STARTCHAR Igrave
ENCODING 204
SWIDTH 537 0
DWIDTH 8 0
BBX 8 16 -1 -3
BITMAP
02
03
00
07
0D
09
0B
0A
0A
0A
1F
64
84
88
48
30
ENDCHAR
STARTCHAR Iacute
ENCODING 205
SWIDTH 537 0
DWIDTH 8 0
BBX 8 16 -1 -3
BITMAP
01
03
00
07
0D
09
0B
0A
0A
0A
1F
64
84
88
48
30
ENDCHAR
STARTCHAR Icircumflex
ENCODING 206
SWIDTH 537 0
DWIDTH 8 0
BBX 9 16 -1 -3
BITMAP
0100
0680
0000
0700
0D00
0900
0B00
0A00
0A00
0A00
1F00
6400
8400
8800
4800
3000
ENDCHAR
STARTCHAR Idieresis
ENCODING 207
SWIDTH 537 0
DWIDTH 8 0
BBX 9 15 -1 -3
BITMAP
0680
0000
0700
0D00
0900
0B00
0A00
0A00
0A00
1F00
6400
8400
8800
4800
3000
ENDCHAR
STARTCHAR Eth
ENCODING 208
SWIDTH 632 0
DWIDTH 9 0
BBX 8 13 0 -3
BITMAP
3E
43
31
21
21
29
F1
63
42
46
CC
D8
60
ENDCHAR
STARTCHAR Ntilde
ENCODING 209
SWIDTH 541 0
DWIDTH 8 0
BBX 10 14 -1 -2
BITMAP
0F00
0000
11C0
1140
3140
2B80
2A00
2A00
6A00
4A00
4A00
4C00
4C00
CC00
ENDCHAR
STARTCHAR Ograve
ENCODING 210
SWIDTH 567 0
DWIDTH 8 0
BBX 7 16 0 -3
BITMAP
08
06
00
1E
32
22
42
42
42
C2
C2
84
84
CC
58
20
ENDCHAR
STARTCHAR Oacute
ENCODING 211
SWIDTH 567 0
DWIDTH 8 0
BBX 7 16 0 -3
BITMAP
02
0C
00
1E
32
22
42
42
42
C2
C2
84
84
CC
58
20
ENDCHAR
STARTCHAR Ocircumflex
ENCODING 212
SWIDTH 567 0
DWIDTH 8 0
BBX 7 16 0 -3
BITMAP
04
1A
00
1E
32
22
42
42
42
C2
C2
84
84
CC
58
20
ENDCHAR
STARTCHAR Otilde
ENCODING 213
SWIDTH 567 0
DWIDTH 8 0
BBX 7 15 0 -3
BITMAP
1E
00
1E
32
22
42
42
42
C2
C2
84
84
CC
58
20
ENDCHAR
STARTCHAR Odieresis
ENCODING 214
SWIDTH 567 0
DWIDTH 8 0
BBX 7 15 0 -3
BITMAP
0A
00
1E
32
22
42
42
42
C2
C2
84
84
CC
58
20
ENDCHAR
STARTCHAR multiply
ENCODING 215
SWIDTH 281 0
DWIDTH 4 0
BBX 5 5 0 2
BITMAP
D8
60
40
A0
A0
ENDCHAR
STARTCHAR Oslash
ENCODING 216
SWIDTH 597 0
DWIDTH 8 0
BBX 8 14 0 -3
BITMAP
01
1F
32
26
66
4A
4A
52
D2
E6
E4
4C
C8
B0
ENDCHAR
STARTCHAR Ugrave
ENCODING 217
SWIDTH 574 0
DWIDTH 8 0
BBX 9 16 0 -3
BITMAP
0800
0600
0000
3180
2100
2300
6200
4200
4200
4600
C400
C400
8C00
8C00
D400
2000
ENDCHAR
STARTCHAR Uacute
ENCODING 218
SWIDTH 574 0
DWIDTH 8 0
BBX 9 16 0 -3
BITMAP
0200
0600
0000
3180
2100
2300
6200
4200
4200
4600
C400
C400
8C00
8C00
D400
2000
ENDCHAR
STARTCHAR Ucircumflex
ENCODING 219
SWIDTH 574 0
DWIDTH 8 0
BBX 9 16 0 -3
BITMAP
0200
0F00
0000
3180
2100
2300
6200
4200
4200
4600
C400
C400
8C00
8C00
D400
2000
ENDCHAR
STARTCHAR Udieresis
ENCODING 220
SWIDTH 574 0
DWIDTH 8 0
BBX 9 15 0 -3
BITMAP
0B00
0000
3180
2100
2300
6200
4200
4200
4600
C400
C400
8C00
8C00
D400
2000
ENDCHAR
STARTCHAR Yacute
ENCODING 221
SWIDTH 532 0
DWIDTH 7 0
BBX 8 16 0 -3
BITMAP
02
0E
00
33
23
62
42
46
44
C4
CC
74
08
48
F0
40
ENDCHAR
STARTCHAR Thorn
ENCODING 222
SWIDTH 569 0
DWIDTH 8 0
BBX 9 13 -1 -3
BITMAP
1800
1000
1E00
3100
7180
2180
2100
2300
6600
7800
4000
4000
8000
ENDCHAR
STARTCHAR germandbls
ENCODING 223
SWIDTH 495 0
DWIDTH 7 0
BBX 8 16 -2 -7
BITMAP
0E
09
1A
12
14
12
E1
25
35
4A
48
48
48
90
E0
40
ENDCHAR
STARTCHAR agrave
ENCODING 224
SWIDTH 435 0
DWIDTH 6 0
BBX 7 9 0 0
BITMAP
20
30
00
30
50
D0
92
94
F8
ENDCHAR
STARTCHAR aacute
ENCODING 225
SWIDTH 435 0
DWIDTH 6 0
BBX 7 9 0 0
BITMAP
08
30
00
30
50
D0
92
94
F8
ENDCHAR
STARTCHAR acircumflex
ENCODING 226
SWIDTH 435 0
DWIDTH 6 0
BBX 7 9 0 0
BITMAP
10
68
00
30
50
D0
92
94
F8
ENDCHAR
STARTCHAR atilde
ENCODING 227
SWIDTH 435 0
DWIDTH 6 0
BBX 7 8 0 0
BITMAP
78
00
30
50
D0
92
94
F8
ENDCHAR
STARTCHAR adieresis
ENCODING 228
SWIDTH 435 0
DWIDTH 6 0
BBX 7 7 0 0
BITMAP
28
30
50
D0
92
94
F8
ENDCHAR
STARTCHAR aring
ENCODING 229
SWIDTH 435 0
DWIDTH 6 0
BBX 7 8 0 0
BITMAP
30
00
30
50
D0
92
94
F8
ENDCHAR
STARTCHAR ae
ENCODING 230
SWIDTH 594 0
DWIDTH 8 0
BBX 9 6 0 0
BITMAP
3600
5A00
DE00
9880
9100
FE00
ENDCHAR
STARTCHAR ccedilla
ENCODING 231
SWIDTH 363 0
DWIDTH 5 0
BBX 6 9 0 -3
BITMAP
30
50
90
84
88
F0
40
60
60
ENDCHAR
STARTCHAR egrave
ENCODING 232
SWIDTH 372 0
DWIDTH 5 0
BBX 6 9 0 0
BITMAP
20
30
00
30
50
A0
C4
88
F0
ENDCHAR
STARTCHAR eacute
ENCODING 233
SWIDTH 372 0
DWIDTH 5 0
BBX 6 9 0 0
BITMAP
10
30
00
30
50
A0
C4
88
F0
ENDCHAR
STARTCHAR ecircumflex
ENCODING 234
SWIDTH 372 0
DWIDTH 5 0
BBX 6 9 0 0
BITMAP
10
78
00
30
50
A0
C4
88
F0
ENDCHAR
STARTCHAR edieresis
ENCODING 235
SWIDTH 372 0
DWIDTH 5 0
BBX 6 7 0 0
BITMAP
78
30
50
A0
C4
88
F0
ENDCHAR
STARTCHAR igrave
ENCODING 236
SWIDTH 274 0
DWIDTH 4 0
BBX 5 9 0 0
BITMAP
80
60
00
00
40
40
88
90
E0
ENDCHAR
STARTCHAR iacute
ENCODING 237
SWIDTH 274 0
DWIDTH 4 0
BBX 5 9 0 0
BITMAP
10
30
00
00
40
40
88
90
E0
ENDCHAR
STARTCHAR icircumflex
ENCODING 238
SWIDTH 274 0
DWIDTH 4 0
BBX 5 8 0 0
BITMAP
20
F0
00
40
40
88
90
E0
ENDCHAR
STARTCHAR idieresis
ENCODING 239
SWIDTH 274 0
DWIDTH 4 0
BBX 5 7 0 0
BITMAP
F0
00
40
40
88
90
E0
ENDCHAR
STARTCHAR eth
ENCODING 240
SWIDTH 393 0
DWIDTH 6 0
BBX 7 9 0 0
BITMAP
10
1C
30
28
52
D4
F8
90
E0
ENDCHAR
STARTCHAR ntilde
ENCODING 241
SWIDTH 461 0
DWIDTH 6 0
BBX 8 7 0 0
BITMAP
78
00
78
49
9A
92
9C
ENDCHAR
STARTCHAR ograve
ENCODING 242
SWIDTH 393 0
DWIDTH 6 0
BBX 7 9 0 0
BITMAP
20
30
00
20
52
D4
F8
90
E0
ENDCHAR
STARTCHAR oacute
ENCODING 243
SWIDTH 393 0
DWIDTH 6 0
BBX 7 9 0 0
BITMAP
10
30
00
20
52
D4
F8
90
E0
ENDCHAR
STARTCHAR ocircumflex
ENCODING 244
SWIDTH 393 0
DWIDTH 6 0
BBX 7 8 0 0
BITMAP
30
58
20
52
D4
F8
90
E0
ENDCHAR
STARTCHAR otilde
ENCODING 245
SWIDTH 393 0
DWIDTH 6 0
BBX 7 7 0 0
BITMAP
78
20
52
D4
F8
90
E0
ENDCHAR
STARTCHAR odieresis
ENCODING 246
SWIDTH 393 0
DWIDTH 6 0
BBX 7 7 0 0
BITMAP
78
20
52
D4
F8
90
E0
ENDCHAR
STARTCHAR divide
ENCODING 247
SWIDTH 350 0
DWIDTH 5 0
BBX 5 4 0 3
BITMAP
30
78
80
60
ENDCHAR
STARTCHAR oslash
ENCODING 248
SWIDTH 406 0
DWIDTH 6 0
BBX 8 7 -1 -1
BITMAP
14
29
6A
7C
48
70
C0
ENDCHAR
STARTCHAR ugrave
ENCODING 249
SWIDTH 468 0
DWIDTH 7 0
BBX 8 8 0 0
BITMAP
20
30
00
48
D9
92
92
FC
ENDCHAR
STARTCHAR uacute
ENCODING 250
SWIDTH 468 0
DWIDTH 7 0
BBX 8 8 0 0
BITMAP
08
30
00
48
D9
92
92
FC
ENDCHAR
STARTCHAR ucircumflex
ENCODING 251
SWIDTH 468 0
DWIDTH 7 0
BBX 8 8 0 0
BITMAP
10
68
00
48
D9
92
92
FC
ENDCHAR
STARTCHAR udieresis
ENCODING 252
SWIDTH 468 0
DWIDTH 7 0
BBX 8 7 0 0
BITMAP
28
00
48
D9
92
92
FC
ENDCHAR
STARTCHAR yacute
ENCODING 253
SWIDTH 406 0
DWIDTH 6 0
BBX 5 15 0 -6
BITMAP
08
38
00
80
48
88
90
90
F0
10
20
20
20
20
60
ENDCHAR
STARTCHAR thorn
ENCODING 254
SWIDTH 451 0
DWIDTH 6 0
BBX 8 16 -1 -6
BITMAP
10
10
10
30
20
3C
24
45
6A
7C
40
C0
80
80
80
80
ENDCHAR
STARTCHAR ydieresis
ENCODING 255
SWIDTH 406 0
DWIDTH 6 0
BBX 5 13 0 -6
BITMAP
78
80
48
88
90
90
F0
10
20
20
20
20
60
ENDCHAR
STARTCHAR dotlessi
ENCODING 305
SWIDTH 274 0
DWIDTH 4 0
BBX 5 5 0 0
BITMAP
40
40
88
90
E0
ENDCHAR
STARTCHAR Lslash
ENCODING 321
SWIDTH 492 0
DWIDTH 7 0
BBX 8 13 -1 -3
BITMAP
03
05
05
0E
7C
08
0E
38
10
10
E0
DA
06
ENDCHAR
STARTCHAR lslash
ENCODING 322
SWIDTH 218 0
DWIDTH 3 0
BBX 5 10 -1 0
BITMAP
10
10
10
30
38
E0
20
40
40
40
ENDCHAR
STARTCHAR OE
ENCODING 338
SWIDTH 918 0
DWIDTH 13 0
BBX 13 13 0 -3
BITMAP
1E78
3388
2308
4310
4300
4380
C3E0
C200
8600
8610
CE20
5B60
2080
ENDCHAR
STARTCHAR oe
ENCODING 339
SWIDTH 583 0
DWIDTH 8 0
BBX 9 6 0 0
BITMAP
2600
5A00
DA00
FC80
9100
FE00
ENDCHAR
STARTCHAR Scaron
ENCODING 352
SWIDTH 474 0
DWIDTH 7 0
BBX 9 16 -1 -3
BITMAP
0480
0300
0000
1F00
3100
2100
2200
3000
1800
0C00
0400
0400
4400
C400
4800
3000
ENDCHAR
STARTCHAR scaron
ENCODING 353
SWIDTH 351 0
DWIDTH 5 0
BBX 5 9 0 0
BITMAP
48
30
00
20
60
60
B0
50
E0
ENDCHAR
STARTCHAR Ydieresis
ENCODING 376
SWIDTH 532 0
DWIDTH 7 0
BBX 8 15 0 -3
BITMAP
0A
00
33
23
62
42
46
44
C4
CC
74
08
48
F0
40
ENDCHAR
STARTCHAR Zcaron
ENCODING 381
SWIDTH 455 0
DWIDTH 6 0
BBX 8 15 -1 -2
BITMAP
05
06
00
3F
21
02
06
04
08
10
30
60
40
80
FC
ENDCHAR
STARTCHAR zcaron
ENCODING 382
SWIDTH 349 0
DWIDTH 5 0
BBX 8 15 -2 -6
BITMAP
12
0C
00
0C
34
08
09
1A
24
18
28
48
90
B0
E0
ENDCHAR
STARTCHAR circumflex
ENCODING 710
SWIDTH 567 0
DWIDTH 8 0
BBX 4 2 3 8
BITMAP
20
F0
ENDCHAR
STARTCHAR caron
ENCODING 711
SWIDTH 567 0
DWIDTH 8 0
BBX 4 2 3 8
BITMAP
B0
60
ENDCHAR
STARTCHAR breve
ENCODING 728
SWIDTH 567 0
DWIDTH 8 0
BBX 4 1 3 8
BITMAP
F0
ENDCHAR
STARTCHAR dotaccent
ENCODING 729
SWIDTH 567 0
DWIDTH 8 0
BBX 2 1 4 8
BITMAP
C0
ENDCHAR
STARTCHAR ring
ENCODING 730
SWIDTH 567 0
DWIDTH 8 0
BBX 2 1 4 8
BITMAP
C0
ENDCHAR
STARTCHAR ogonek
ENCODING 731
SWIDTH 567 0
DWIDTH 8 0
BBX 4 3 3 -2
BITMAP
40
B0
40
ENDCHAR
STARTCHAR tilde
ENCODING 732
SWIDTH 567 0
DWIDTH 8 0
BBX 4 1 3 8
BITMAP
F0
ENDCHAR
STARTCHAR hungarumlaut
ENCODING 733
SWIDTH 567 0
DWIDTH 8 0
BBX 5 2 2 8
BITMAP
28
F8
ENDCHAR
STARTCHAR endash
ENCODING 8211
SWIDTH 353 0
DWIDTH 5 0
BBX 5 1 0 4
BITMAP
F8
ENDCHAR
STARTCHAR emdash
ENCODING 8212
SWIDTH 508 0
DWIDTH 7 0
BBX 7 1 0 4
BITMAP
FE
ENDCHAR
STARTCHAR quoteleft
ENCODING 8216
SWIDTH 155 0
DWIDTH 2 0
BBX 1 4 1 6
BITMAP
80
80
80
80
ENDCHAR
STARTCHAR quoteright
ENCODING 8217
SWIDTH 154 0
DWIDTH 2 0
BBX 2 3 1 6
BITMAP
C0
80
80
ENDCHAR
STARTCHAR quotesinglbase
ENCODING 8218
SWIDTH 188 0
DWIDTH 3 0
BBX 2 3 -1 -2
BITMAP
C0
40
80
ENDCHAR
STARTCHAR quotedblleft
ENCODING 8220
SWIDTH 289 0
DWIDTH 4 0
BBX 3 4 1 6
BITMAP
60
A0
E0
A0
ENDCHAR
STARTCHAR quotedblright
ENCODING 8221
SWIDTH 288 0
DWIDTH 4 0
BBX 3 4 1 6
BITMAP
A0
E0
A0
C0
ENDCHAR
STARTCHAR quotedblbase
ENCODING 8222
SWIDTH 323 0
DWIDTH 5 0
BBX 4 3 -1 -2
BITMAP
F0
50
A0
ENDCHAR
STARTCHAR bullet
ENCODING 8226
SWIDTH 180 0
DWIDTH 3 0
BBX 2 4 0 2
BITMAP
40
C0
C0
80
ENDCHAR
STARTCHAR ellipsis
ENCODING 8230
SWIDTH 614 0
DWIDTH 9 0
BBX 7 1 0 0
BITMAP
B6
ENDCHAR
STARTCHAR perthousand
ENCODING 8240
SWIDTH 851 0
DWIDTH 12 0
BBX 11 10 0 0
BITMAP
7100
5200
9400
5800
6800
1660
2AA0
2AA0
4AA0
CEE0
ENDCHAR
STARTCHAR guilsinglleft
ENCODING 8249
SWIDTH 202 0
DWIDTH 3 0
BBX 4 5 -1 0
BITMAP
30
40
C0
40
20
ENDCHAR
STARTCHAR guilsinglright
ENCODING 8250
SWIDTH 202 0
DWIDTH 3 0
BBX 3 5 -1 0
BITMAP
40
20
20
40
80
ENDCHAR
STARTCHAR fraction
ENCODING 8260
SWIDTH 600 0
DWIDTH 8 0
BBX 9 10 0 0
BITMAP
0180
0200
0200
0400
0800
1000
1000
2000
6000
C000
ENDCHAR
STARTCHAR Euro
ENCODING 8364
SWIDTH 334 0
DWIDTH 5 0
BBX 6 8 -1 1
BITMAP
1C
14
20
78
F8
40
48
30
ENDCHAR
STARTCHAR minus
ENCODING 8722
SWIDTH 353 0
DWIDTH 5 0
BBX 5 1 0 4
BITMAP
F8
ENDCHAR
STARTCHAR fi
ENCODING 64257
SWIDTH 549 0
DWIDTH 8 0
BBX 10 17 -1 -7
BITMAP
1000
1100
1100
1000
1000
2200
3E00
6440
6480
7700
5000
5000
9000
9000
B000
E000
8000
ENDCHAR
STARTCHAR fl
ENCODING 64258
SWIDTH 516 0
DWIDTH 7 0
BBX 8 17 -1 -7
BITMAP
11
11
11
13
12
22
3E
66
64
74
50
50
90
90
B0
E0
80
ENDCHAR
STARTCHAR .notdef
ENCODING -1
SWIDTH 280 0
DWIDTH 4 0
BBX 1 1 0 0
BITMAP
00
ENDCHAR
ENDFONT
